<svg width="23" height="30" viewBox="0 0 23 30" fill="none" xmlns="http://www.w3.org/2000/svg">
<path d="M11.5002 3.63141C7.33083 3.63141 3.93945 7.02691 3.93945 11.2013C3.93945 15.3758 7.33083 18.7713 11.5002 18.7713C15.6696 18.7713 19.0609 15.3758 19.0609 11.2013C19.0609 7.02691 15.6696 3.63141 11.5002 3.63141ZM11.5002 17.9485C7.78557 17.9485 4.76127 14.9205 4.76127 11.2013C4.76127 7.4822 7.78557 4.45423 11.5002 4.45423C15.2148 4.45423 18.2391 7.4822 18.2391 11.2013C18.2391 14.9205 15.2148 17.9485 11.5002 17.9485Z" fill="#2D3440"/>
<path d="M11.5 0C5.16103 0 0 5.16731 0 11.514C0 14.9534 1.91758 17.8003 3.36398 19.6489L11.7246 30L20.1291 19.1059C21.4659 17.2024 23 14.6188 23 11.5195C23 5.16731 17.8444 0 11.5 0ZM19.4662 18.6177L11.7082 28.6725L4.005 19.1333C2.64078 17.3889 0.82182 14.6956 0.82182 11.514C0.82182 5.61711 5.61029 0.82282 11.5 0.82282C17.3897 0.82282 22.1782 5.61711 22.1782 11.514C22.1782 14.3884 20.7263 16.8239 19.4662 18.6177Z" fill="#2D3440"/>
</svg>
