<svg width="25" height="19" viewBox="0 0 25 19" fill="none" xmlns="http://www.w3.org/2000/svg">
<path d="M0 0V19H25V0H0ZM23.6146 0.663408C23.5746 0.707635 23.5346 0.747439 23.4902 0.796089L14.8401 9.50885C12.9885 11.1408 11.8872 11.1453 10.2886 9.51769L1.32771 0.663408H23.6146ZM1.08792 0.663408L0.737123 1.0128L9.8135 9.9865C11.6741 11.8794 13.1528 11.8838 15.2975 9.99092L23.9654 1.25605C24.0764 1.14106 24.1741 1.03934 24.2673 0.946462L23.9742 0.663408H24.3339V17.8678L17.4023 10.9639L16.9316 11.4327L23.8632 18.3366H1.11456L7.99734 11.2116L7.51776 10.7516L0.666075 17.8457V0.663408H1.08792Z" fill="#2D3440"/>
</svg>
