<svg width="95" height="88" viewBox="0 0 95 88" fill="none" xmlns="http://www.w3.org/2000/svg">
<path d="M73.4115 11.0924C70.8236 10.303 67.997 10.6081 65.6699 11.94C63.4757 13.1958 61.8871 15.2936 61.2107 17.7208C58.1987 14.9567 53.6439 14.3705 50.0116 16.414C49.9983 16.4216 49.985 16.4292 49.9717 16.4368C47.7776 17.6927 46.1889 19.7905 45.5126 22.2176C42.4796 19.4478 37.9039 18.8559 34.2736 20.9337C32.4917 21.9536 31.124 23.4814 30.2977 25.338L18.041 5.61995C15.199 1.05552 9.4466 -0.512652 4.96524 2.05228C2.7445 3.32333 1.09136 5.49353 0.439963 7.99509C-0.192488 10.4681 0.15517 13.0187 1.44167 15.1739L27.9956 59.6864L17.4777 55.6836C14.0074 54.3704 9.08236 55.4508 2.81309 58.9326C2.69906 58.9801 2.58903 59.0963 2.52088 59.224C1.33186 61.3414 1.06644 63.7463 1.76914 66.0227C2.4469 68.2247 3.95877 70.0026 6.08131 71.0584L41.8303 85.1536C50.2906 89.5713 62.1144 86.9726 72.4069 81.0816C76.9548 78.4787 81.1907 75.2382 84.7142 71.6782C94.0322 62.2649 97.1242 51.998 93.0043 44.2446L78.7762 15.5611C77.7105 13.4215 75.8033 11.8167 73.4115 11.0924ZM91.6439 44.9523C95.433 52.0968 92.4324 61.6905 83.6209 70.6009C72.5061 81.8409 54.0987 89.8398 42.4639 83.7621L6.69391 69.6611C5.00958 68.8157 3.79164 67.3664 3.22728 65.5784C2.67623 63.7828 2.87453 61.8776 3.75075 60.1698C9.43691 57.0573 13.9852 55.9973 16.9356 57.1115L29.5125 61.9049C29.8077 62.0197 30.1671 61.9382 30.3719 61.6791C30.5843 61.4333 30.6042 61.0672 30.4436 60.7866L2.75615 14.386C1.68945 12.584 1.38671 10.4512 1.91946 8.39005C2.4768 6.27937 3.85503 4.46165 5.73003 3.38849C9.5066 1.22695 14.3318 2.56304 16.7418 6.4345L29.8471 27.5118C30.0134 27.7714 30.3106 27.9206 30.6168 27.8695C30.923 27.8185 31.164 27.5918 31.2431 27.2982C31.7775 25.1474 33.1368 23.3583 35.0384 22.2699C38.4825 20.2986 42.9239 21.1803 45.3738 24.3193C45.5667 24.5638 45.8885 24.6634 46.1927 24.578C46.4969 24.4926 46.715 24.2258 46.7389 23.9283C47.0019 21.3652 48.4759 19.0669 50.689 17.7825C50.7023 17.7749 50.7156 17.7673 50.7289 17.7597C54.173 15.7884 58.6144 16.67 61.0643 19.8091C61.2572 20.0535 61.5867 20.1665 61.8832 20.0678C62.1874 19.9823 62.4055 19.7156 62.4294 19.4181C62.6981 16.834 64.193 14.5415 66.4137 13.2705C68.3818 12.144 70.7708 11.8765 72.9608 12.5566C74.947 13.1583 76.5147 14.4784 77.3873 16.2497L91.6439 44.9523Z" fill="#EE424D"/>
</svg>
