<svg width="27" height="31" viewBox="0 0 27 31" fill="none" xmlns="http://www.w3.org/2000/svg">
<g clip-path="url(#clip0)">
<path d="M13.5 31C5.44093 27.4266 0 20.6505 0 12.875C0 8.88785 0.0472212 4.8953 0.0472212 0.90813C1.25398 2.36436 3.6885 3.35847 6.49553 3.35847C9.84823 3.35847 12.671 1.93448 13.5052 0C14.3342 1.93448 17.157 3.35847 20.515 3.35847C23.322 3.35847 25.7513 2.36436 26.9633 0.90813C26.9633 4.8953 27.0105 8.88785 27.0105 12.875C27 20.6505 21.5591 27.4266 13.5 31Z" fill="#EE424D"/>
<path d="M13.054 21.118C12.9806 21.118 12.9071 21.0858 12.8546 21.0267L7.62884 14.8256C7.5344 14.7128 7.54489 14.5408 7.65507 14.4441C7.76526 14.3474 7.92791 14.3581 8.0276 14.471L13.0278 20.4034L20.2264 9.13502C20.3051 9.01143 20.4677 8.97382 20.5884 9.0598C20.7091 9.1404 20.7458 9.30698 20.6619 9.43057L13.2744 20.9998C13.2272 21.0697 13.1537 21.1127 13.075 21.1234C13.0645 21.118 13.0593 21.118 13.054 21.118Z" fill="white"/>
</g>
<defs>
<clipPath id="clip0">
<rect width="27" height="31" fill="white"/>
</clipPath>
</defs>
</svg>
