<svg width="71" height="56" viewBox="0 0 71 56" fill="none" xmlns="http://www.w3.org/2000/svg">
<path d="M17.0375 48.8334C17.0375 49.0874 17.2359 49.2869 17.4884 49.2869H23.6035C23.8561 49.2869 24.0545 49.0874 24.0545 48.8334C24.0545 48.5793 23.8561 48.3798 23.6035 48.3798H17.4884C17.2449 48.3798 17.0375 48.5793 17.0375 48.8334Z" fill="#EF424C"/>
<path d="M11.5086 48.3798H6.59312C6.34058 48.3798 6.14215 48.5793 6.14215 48.8334C6.14215 49.0874 6.34058 49.2869 6.59312 49.2869H11.5086C11.7612 49.2869 11.9596 49.0874 11.9596 48.8334C11.9596 48.5793 11.7612 48.3798 11.5086 48.3798Z" fill="#EF424C"/>
<path d="M66.2017 0H19.635C16.9924 0 14.8368 2.16815 14.8368 4.82618V16.5197H4.79827C2.15561 16.5197 0 18.6878 0 21.3459V51.1648C0 53.8228 2.15561 55.9909 4.79827 55.9909H51.365C54.0166 55.9909 56.1632 53.8228 56.1632 51.1648V39.4803H66.2017C68.8534 39.4803 71 37.3122 71 34.6541V4.82618C71 2.16815 68.8534 0 66.2017 0ZM0.901931 21.3459C0.901931 19.1868 2.65168 17.4269 4.79827 17.4269H14.8368H15.7387H51.365C53.5116 17.4269 55.2613 19.1868 55.2613 21.3459V25.6912H15.7387H14.8368H0.901931V21.3459ZM0.901931 26.6075H14.8368H15.7387H55.2613V32.8216H15.7387H14.8368H0.901931V26.6075ZM55.2613 51.1738C55.2613 53.3329 53.5116 55.0928 51.365 55.0928H4.79827C2.65168 55.0928 0.901931 53.3329 0.901931 51.1738V33.7288H14.8368H15.7387H55.2613V38.5731V39.4803V51.1738ZM70.0981 34.6541C70.0981 36.8132 68.3483 38.5731 66.2017 38.5731H56.1632V21.3459C56.1632 19.5769 55.1982 18.0437 53.7821 17.2001H70.0981V34.6541ZM70.0981 16.302H15.7387V10.0878H70.0981V16.302ZM70.0981 9.18062H15.7387V4.82618C15.7387 2.6671 17.4884 0.907176 19.635 0.907176H66.2017C68.3483 0.907176 70.0981 2.6671 70.0981 4.82618V9.18062Z" fill="#EF424C"/>
</svg>
