<svg width="56" height="55" viewBox="0 0 56 55" fill="none" xmlns="http://www.w3.org/2000/svg">
<path d="M3.99951 0.624359L0.172571 7.11943C-0.319084 7.95191 0.296593 8.99685 1.2799 8.99685H3.45913H6.66597H8.93821C9.92152 8.99685 10.5372 7.95191 10.0455 7.11943L6.21418 0.624359C5.72252 -0.20812 4.4956 -0.20812 3.99951 0.624359Z" fill="#EE424D"/>
<path d="M3.43713 49.953C3.43713 50.8201 4.15468 51.5225 5.04055 51.5225H44.7362V48.3834H6.66611V11.0259H3.45928V49.7058C3.44599 49.7839 3.43713 49.8706 3.43713 49.953Z" fill="#EE424D"/>
<path d="M55.3578 51.0845C56.2082 50.6032 56.2082 49.3979 55.3578 48.9166L48.727 45.1704C47.8766 44.6892 46.8091 45.2919 46.8091 46.2544V48.3876V51.5268V53.7511C46.8091 54.7136 47.8722 55.3163 48.727 54.835L55.3578 51.0845Z" fill="#EE424D"/>
<path d="M31.7007 2.9917H29.0254V4.29245H31.7007V2.9917Z" fill="#EE424D"/>
<path d="M42.4064 2.9917H39.7311V4.29245H42.4064V2.9917Z" fill="#EE424D"/>
<path d="M37.0514 2.9917H34.376V4.29245H37.0514V2.9917Z" fill="#EE424D"/>
<path d="M15.6488 2.9917H12.9735V4.29245H15.6488V2.9917Z" fill="#EE424D"/>
<path d="M26.3501 2.9917H23.6748V4.29245H26.3501V2.9917Z" fill="#EE424D"/>
<path d="M47.757 2.9917H45.0817V4.29245H47.757V2.9917Z" fill="#EE424D"/>
<path d="M20.9994 2.9917H18.3241V4.29245H20.9994V2.9917Z" fill="#EE424D"/>
<path d="M52.0668 18.4055H50.738V21.0244H52.0668V18.4055Z" fill="#EE424D"/>
<path d="M52.0668 7.93018H50.738V10.549H52.0668V7.93018Z" fill="#EE424D"/>
<path d="M52.0668 13.168H50.738V15.7868H52.0668V13.168Z" fill="#EE424D"/>
<path d="M50.4323 2.9917V4.29245H50.7379V5.31137H52.0667V2.9917H50.4323Z" fill="#EE424D"/>
<path d="M52.0668 23.6433H50.738V26.2622H52.0668V23.6433Z" fill="#EE424D"/>
<path d="M52.0668 34.1187H50.738V36.7375H52.0668V34.1187Z" fill="#EE424D"/>
<path d="M52.0668 39.3562H50.738V41.7843H52.0668V39.3562Z" fill="#EE424D"/>
<path d="M52.0668 28.8811H50.738V31.4999H52.0668V28.8811Z" fill="#EE424D"/>
</svg>
