<svg width="58" height="56" viewBox="0 0 58 56" fill="none" xmlns="http://www.w3.org/2000/svg">
<path d="M8.60999 11.87H19.3C19.58 11.87 19.8 11.65 19.8 11.37C19.8 11.09 19.58 10.87 19.3 10.87H8.60999C8.32999 10.87 8.10999 11.09 8.10999 11.37C8.10999 11.65 8.32999 11.87 8.60999 11.87Z" fill="#EF424C"/>
<path d="M29.99 32.8H8.60999C8.32999 32.8 8.10999 33.02 8.10999 33.3C8.10999 33.58 8.32999 33.8 8.60999 33.8H29.99C30.27 33.8 30.49 33.58 30.49 33.3C30.49 33.02 30.27 32.8 29.99 32.8Z" fill="#EF424C"/>
<path d="M19.3 38.71H8.60999C8.32999 38.71 8.10999 38.93 8.10999 39.21C8.10999 39.49 8.32999 39.71 8.60999 39.71H19.3C19.58 39.71 19.8 39.49 19.8 39.21C19.8 38.93 19.58 38.71 19.3 38.71Z" fill="#EF424C"/>
<path d="M29.99 26.89H8.60999C8.32999 26.89 8.10999 27.11 8.10999 27.39C8.10999 27.67 8.32999 27.89 8.60999 27.89H29.99C30.27 27.89 30.49 27.67 30.49 27.39C30.49 27.11 30.27 26.89 29.99 26.89Z" fill="#EF424C"/>
<path d="M38.46 13.37L25.23 0.15C25.15 0.06 25.03 0.01 24.9 0C24.89 0 24.88 0 24.87 0H2.53C1.13 0 0 1.13 0 2.53V52.51C0 53.9 1.13 55.04 2.53 55.04H36.08C37.45 55.04 38.61 53.88 38.61 52.51V13.73C38.61 13.72 38.61 13.71 38.61 13.7C38.6 13.57 38.54 13.45 38.46 13.37ZM25.38 1.71L36.9 13.22H26.91C26.07 13.22 25.38 12.53 25.38 11.69V1.71ZM37.6 52.51C37.6 53.34 36.9 54.04 36.07 54.04H2.53C1.7 54.04 1 53.34 1 52.51V2.53C1 1.69 1.69 1 2.53 1H24.38V11.69C24.38 13.08 25.51 14.22 26.91 14.22H37.61V52.51H37.6Z" fill="#EF424C"/>
<path d="M57.63 12.85C57.54 12.76 57.41 12.7 57.28 12.7H53.04V7.28003C53.04 7.00003 52.82 6.78003 52.54 6.78003H45.29C45.01 6.78003 44.79 7.00003 44.79 7.28003V13C44.76 13.06 44.75 13.13 44.75 13.21C44.75 13.29 44.77 13.35 44.79 13.42V44.89C44.79 46.73 45.21 48.29 46.02 49.4C46.62 50.23 47.43 50.77 48.29 50.95V54.56C48.29 54.84 48.51 55.06 48.79 55.06C49.07 55.06 49.29 54.84 49.29 54.56V50.99C51.16 50.76 53.04 48.83 53.04 44.89V13.7H56.78L56.75 27.24C56.75 27.52 56.97 27.74 57.25 27.74C57.53 27.74 57.75 27.52 57.75 27.24L57.78 13.2C57.78 13.07 57.73 12.94 57.63 12.85ZM52.04 44.88C52.04 48.4 50.42 50 48.92 50C48.89 50 48.86 50 48.83 50C48.83 50 48.83 50 48.82 50C47.35 49.93 45.8 48.32 45.8 44.88V13.7H52.05V44.88H52.04ZM52.04 12.7H45.79V7.78003H52.04V12.7Z" fill="#EF424C"/>
<path d="M8.10999 21.49C8.10999 21.77 8.32999 21.99 8.60999 21.99H29.99C30.27 21.99 30.49 21.77 30.49 21.49C30.49 21.21 30.27 20.99 29.99 20.99H8.60999C8.32999 20.99 8.10999 21.21 8.10999 21.49Z" fill="#EF424C"/>
</svg>
