<svg width="59" height="60" viewBox="0 0 59 60" fill="none" xmlns="http://www.w3.org/2000/svg">
<path d="M40.7 41.5199C40.67 41.5199 40.65 41.5199 40.62 41.5199C38 41.5199 36.01 40.7099 35.29 39.3499C34.87 38.5699 34.93 37.6799 35.46 36.9099C36.41 35.5199 38.53 34.8599 41.14 35.1499C42.54 35.3099 43.91 35.7699 45.51 36.2999L45.79 36.3899C46.05 36.4799 46.33 36.3299 46.42 36.0699C46.51 35.8099 46.37 35.5199 46.1 35.4399L45.82 35.3499C44.24 34.8199 42.74 34.3199 41.24 34.1599C41.19 34.1499 41.14 34.1499 41.09 34.1399C41.1 34.0999 41.11 34.0499 41.11 33.9999V30.3199C41.11 30.0399 40.89 29.8199 40.61 29.8199C40.33 29.8199 40.11 30.0399 40.11 30.3199V33.9999C40.11 34.0299 40.11 34.0599 40.12 34.0799C37.67 34.0299 35.64 34.8599 34.63 36.3399C33.9 37.4099 33.82 38.7099 34.41 39.8099C35.32 41.5299 37.59 42.5099 40.62 42.5099C40.65 42.5099 40.67 42.5099 40.7 42.5099C43.25 42.5099 45.2 43.3299 45.93 44.6899C46.36 45.4899 46.3 46.3899 45.77 47.1599C44.84 48.5299 42.75 49.1699 40.17 48.8699C38.78 48.7099 37.35 48.2399 35.83 47.7299L35.52 47.6299C35.26 47.5399 34.98 47.6899 34.89 47.9499C34.8 48.2099 34.94 48.4899 35.21 48.5799L35.52 48.6799C37.09 49.1999 38.57 49.6999 40.06 49.8599C40.08 49.8599 40.11 49.8599 40.13 49.8699C40.12 49.9199 40.11 49.9699 40.11 50.0199V53.6999C40.11 53.9799 40.33 54.1999 40.61 54.1999C40.89 54.1999 41.11 53.9799 41.11 53.6999V50.0199C41.11 49.9899 41.11 49.9599 41.1 49.9399C43.57 50.0099 45.59 49.1999 46.59 47.7299C47.32 46.6599 47.4 45.3499 46.8 44.2199C45.9 42.5099 43.67 41.5199 40.7 41.5199Z" fill="#EF424C"/>
<path d="M40.62 24.58C38.83 24.58 37.1 24.85 35.47 25.35C35.47 25.35 35.47 25.34 35.47 25.33V14.32H44.94C45.22 14.32 45.44 14.1 45.44 13.82V7.16C45.44 6.88 45.22 6.66 44.94 6.66H38.96V0.5C38.96 0.22 38.74 0 38.46 0H3.99C3.71 0 3.49 0.22 3.49 0.5V7.16C3.49 7.44 3.71 7.66 3.99 7.66H9.97V13.32H0.5C0.22 13.32 0 13.54 0 13.82V53.77C0 54.05 0.22 54.27 0.5 54.27H28.04C28.09 54.27 28.14 54.26 28.19 54.25C31.35 57.46 35.75 59.46 40.61 59.46C50.23 59.46 58.05 51.64 58.05 42.02C58.05 32.4 50.23 24.58 40.62 24.58ZM44.44 7.66V13.32H35.12C35.09 13.32 35.07 13.32 35.04 13.33C35.02 13.33 34.99 13.32 34.96 13.32H10.96V7.66H44.44ZM4.49 6.66V1H37.96V6.66H10.47H4.49ZM1 14.32H34.47V19.98H1V14.32ZM1 20.98H34.47V25.34C34.47 25.46 34.51 25.57 34.58 25.66C33.81 25.94 33.07 26.28 32.36 26.66C32.31 26.65 32.26 26.64 32.21 26.64H1V20.98ZM1 27.64H30.76C28.62 29.11 26.82 31.05 25.52 33.3H1V27.64ZM1 34.29H24.98C24.12 36.03 23.53 37.94 23.3 39.95H1V34.29ZM1 40.95H23.21C23.19 41.3 23.18 41.66 23.18 42.01C23.18 43.6 23.39 45.14 23.79 46.61H1V40.95ZM1 53.27V47.61H24.1C24.81 49.7 25.91 51.62 27.31 53.27H1ZM40.62 58.46C31.56 58.46 24.18 51.09 24.18 42.02C24.18 32.95 31.56 25.58 40.62 25.58C49.68 25.58 57.06 32.96 57.06 42.02C57.06 51.08 49.68 58.46 40.62 58.46Z" fill="#EF424C"/>
</svg>
