<svg width="59" height="52" viewBox="0 0 59 52" fill="none" xmlns="http://www.w3.org/2000/svg">
<path d="M58.25 12.6C58.33 12.46 58.34 12.3 58.27 12.14L52.8 0.29C52.71 0.11 52.54 0 52.34 0H44.55C44.54 0 44.54 0 44.53 0H32.95C32.94 0 32.94 0 32.93 0H25.38C25.37 0 25.36 0 25.36 0H13.78C13.77 0 13.77 0 13.76 0H6.86999C6.67999 0 6.51999 0.1 6.42999 0.26L0.059987 12.12C-0.020013 12.27 -0.020013 12.45 0.059987 12.6C0.059987 12.6 0.049987 12.61 0.049987 12.62C-0.030013 12.79 -0.020013 12.99 0.099987 13.14L28.78 51.06C28.87 51.18 29.02 51.26 29.18 51.26C29.34 51.26 29.48 51.19 29.58 51.06L58.2 13.13C58.32 12.98 58.34 12.78 58.25 12.6C58.25 12.61 58.25 12.6 58.25 12.6ZM43.77 1L39.07 11.6C38.94 11.75 38.83 11.88 38.74 11.98C38.65 11.87 38.55 11.75 38.41 11.59L33.71 1H43.77ZM25.69 1H32.61L37.53 12.08C37.55 12.13 37.58 12.17 37.61 12.21C37.65 12.25 37.68 12.29 37.72 12.33H20.82H20.58C20.61 12.29 20.65 12.25 20.69 12.21C20.73 12.17 20.75 12.13 20.77 12.08L25.69 1ZM24.6 1L19.89 11.6C19.76 11.75 19.65 11.88 19.56 11.99C19.47 11.88 19.37 11.76 19.23 11.6L14.54 1H24.6ZM7.16999 1H13.45L18.37 12.08C18.39 12.13 18.42 12.17 18.45 12.21C18.49 12.25 18.52 12.29 18.56 12.33H1.07999L7.16999 1ZM1.49999 13.33H19.1L28 46.76L28.52 49.04L1.49999 13.33ZM29.18 49.92L29.12 49.84C29.13 49.84 29.14 49.84 29.15 49.84C29.17 49.84 29.19 49.84 29.2 49.84C29.21 49.84 29.22 49.84 29.23 49.84L29.18 49.92ZM29.33 46.54L29.15 47.32L28.97 46.52L20.14 13.33H38.16L29.33 46.54ZM29.76 49.15L30.3 46.78L39.2 13.33H56.8L29.76 49.15ZM39.76 12.33C39.79 12.29 39.83 12.25 39.87 12.21C39.91 12.17 39.93 12.13 39.95 12.08L44.87 1H52.03L57.26 12.33H39.76Z" fill="#EF424C"/>
</svg>
