<svg width="79" height="52" viewBox="0 0 79 52" fill="none" xmlns="http://www.w3.org/2000/svg">
<path d="M78.9445 49.341L75.7355 36.5236C75.346 34.9788 74.4371 34.0987 73.2314 34.0987H64.5505C64.6061 34.0331 64.6618 33.977 64.7174 33.9021C65.0977 33.4152 65.2275 32.8441 65.0884 32.2917L61.8794 19.4743C61.4899 17.9294 60.581 17.0493 59.3753 17.0493H50.6944C50.75 16.9838 50.8057 16.9276 50.8613 16.8527C51.2416 16.3659 51.3714 15.7947 51.2323 15.2423L48.0326 2.42492C47.6431 0.880086 46.7342 0 45.5285 0H31.1809C29.9752 0 29.0663 0.880086 28.6768 2.42492L25.4678 15.2423C25.3287 15.7947 25.4586 16.3659 25.8388 16.8621C25.8945 16.9276 25.9408 16.9932 26.0057 17.0493H18.4749C17.2692 17.0493 16.3603 17.9294 15.9708 19.4743L12.7618 32.2917C12.6227 32.8441 12.7525 33.4152 13.1328 33.9114C13.1884 33.977 13.2348 34.0425 13.2997 34.0987H5.76884C4.56315 34.0987 3.65426 34.9788 3.26473 36.5236L0.0557579 49.341C-0.0833592 49.8934 0.0464835 50.4645 0.426737 50.9607C0.918284 51.588 1.75299 52 2.55987 52H23.3254C24.1323 52 24.9763 51.588 25.4586 50.9607C25.8388 50.4739 25.9686 49.9028 25.8295 49.3504L22.6206 36.5329C22.4629 35.8869 22.2032 35.3533 21.8693 34.96H30.5688C30.2349 35.3626 29.9845 35.8869 29.8268 36.5329L26.6179 49.341C26.4787 49.8934 26.6086 50.4739 26.9888 50.9607C27.4804 51.588 28.3151 52 29.122 52H49.8875C50.6944 52 51.5291 51.588 52.0207 50.9607C52.4009 50.4739 52.5308 49.9028 52.3916 49.3504L49.1827 36.5329C49.025 35.8869 48.7653 35.3533 48.4314 34.96H57.1309C56.797 35.3626 56.5466 35.8869 56.3889 36.5329L53.18 49.341C53.0408 49.8934 53.1707 50.4645 53.5509 50.9607C54.0425 51.588 54.8772 52 55.6841 52H76.4496C77.2565 52 78.1005 51.588 78.5828 50.9607C78.9537 50.4645 79.0836 49.8934 78.9445 49.341ZM26.3675 15.4764L29.5764 2.65898C29.7341 2.01296 30.1607 0.936262 31.1809 0.936262H45.5285C46.5487 0.936262 46.9661 2.01296 47.133 2.65898L50.342 15.4764C50.4254 15.8228 50.2771 16.1037 50.1379 16.2816C49.8226 16.6842 49.2569 16.9651 48.7375 16.9651H27.9719C27.4433 16.9651 26.8868 16.6936 26.5715 16.291C26.4324 16.1037 26.284 15.8135 26.3675 15.4764ZM39.6856 33.9114C39.7412 33.977 39.7876 34.0425 39.8525 34.0987H37.9976C38.0533 34.0331 38.1089 33.977 38.1646 33.9021C38.5448 33.4152 38.6747 32.8441 38.5356 32.2917L35.3266 19.4743C35.1689 18.8282 34.9092 18.2946 34.5846 17.892H43.2841C42.9502 18.2946 42.6998 18.8189 42.5421 19.4743L39.3239 32.2917C39.1848 32.8441 39.3146 33.4246 39.6856 33.9114ZM24.9299 49.5751C25.0134 49.9215 24.865 50.2024 24.7259 50.3803C24.4105 50.7829 23.8448 51.0637 23.3254 51.0637H2.55987C2.03122 51.0637 1.47475 50.7922 1.15942 50.3896C1.0203 50.2117 0.871912 49.9215 0.955382 49.5751L4.16435 36.7576C4.32202 36.1116 4.74864 35.0349 5.76884 35.0349H20.1165C21.1366 35.0349 21.5633 36.1116 21.7209 36.7576L24.9299 49.5751ZM15.2659 34.0144C14.7373 34.0144 14.1808 33.7429 13.8655 33.3403C13.7263 33.1624 13.5779 32.8722 13.6614 32.5257L16.8704 19.7083C17.0281 19.0623 17.4547 17.9856 18.4749 17.9856H32.8225C33.8427 17.9856 34.26 19.0623 34.427 19.7083L37.6359 32.5257C37.7194 32.8722 37.571 33.153 37.4319 33.3403C37.1166 33.7429 36.5508 34.0238 36.0315 34.0238H15.2659V34.0144ZM51.4827 49.5751C51.5662 49.9215 51.4178 50.2024 51.2787 50.3896C50.9634 50.7922 50.4069 51.0731 49.8782 51.0731H29.1127C28.5841 51.0731 28.0276 50.8016 27.7122 50.399C27.5731 50.2211 27.4247 49.9309 27.5082 49.5844L30.7172 36.767C30.8748 36.121 31.3015 35.0443 32.3217 35.0443H46.6693C47.6895 35.0443 48.1161 36.121 48.2738 36.767L51.4827 49.5751ZM41.828 34.0144C41.2994 34.0144 40.7429 33.7429 40.4276 33.3403C40.2884 33.1624 40.14 32.8722 40.2235 32.5257L43.4325 19.7083C43.5902 19.0623 44.0168 17.9856 45.037 17.9856H59.3846C60.4048 17.9856 60.8221 19.0623 60.9891 19.7083L64.198 32.5257C64.2815 32.8722 64.1331 33.153 63.994 33.3309C63.6787 33.7335 63.1129 34.0144 62.5936 34.0144H41.828ZM77.8501 50.3803C77.5347 50.7829 76.969 51.0637 76.4496 51.0637H55.6748C55.1462 51.0637 54.5897 50.7922 54.2744 50.3896C54.1352 50.2117 53.9868 49.9215 54.0703 49.5751L57.2793 36.7576C57.4369 36.1116 57.8636 35.0349 58.8838 35.0349H73.2314C74.2516 35.0349 74.6689 36.1116 74.8359 36.7576L78.0448 49.5751C78.1376 49.9121 77.9892 50.2024 77.8501 50.3803Z" fill="#EF424C"/>
</svg>
