<svg width="320" height="359" viewBox="0 0 320 359" fill="none" xmlns="http://www.w3.org/2000/svg">
<path d="M242.41 106.042C241.007 105.124 239.116 105.491 238.201 106.899L154.45 235.275L96.318 167.721C95.22 166.436 93.2681 166.314 91.9871 167.415C90.7061 168.517 90.5841 170.475 91.6821 171.76L152.498 242.373C153.108 243.046 153.901 243.413 154.816 243.413C154.877 243.413 154.938 243.413 154.999 243.413C155.975 243.352 156.829 242.862 157.317 242.005L243.264 110.264C244.24 108.857 243.813 106.96 242.41 106.042Z" fill="#2D3440"/>
<path d="M319.756 81.3834C319.634 58.682 319.512 35.9194 319.512 13.218C319.512 11.9331 318.719 10.7705 317.499 10.3421C316.279 9.9138 314.937 10.2809 314.144 11.26C300.114 27.8424 272.299 38.1223 241.555 38.1223C204.651 38.1223 172.261 23.1308 162.867 1.71438C161.891 -0.488452 158.231 -0.488452 157.255 1.71438C147.861 23.1308 115.532 38.1223 78.5665 38.1223C47.8231 38.1223 19.9466 27.8424 5.91689 11.26C5.06291 10.2809 3.72093 9.9138 2.56195 10.3421C1.34197 10.7705 0.54899 11.9331 0.54899 13.218C0.54899 35.9194 0.426992 58.6208 0.304994 81.3834C0.121998 104.085 0 126.786 0 149.488C0 236.01 60.8769 316.168 158.78 358.695C159.146 358.879 159.573 358.94 160 358.94C160.427 358.94 160.854 358.879 161.22 358.695C259.184 316.168 320 236.01 320 149.488C320 126.786 319.878 104.085 319.756 81.3834ZM160 352.576C65.0248 310.906 6.09989 233.195 6.09989 149.488C6.09989 126.786 6.22188 104.085 6.34388 81.4446C6.46588 61.1908 6.58788 40.937 6.64888 20.7444C22.8136 35.3687 49.5311 44.2412 78.5665 44.2412C114.861 44.2412 147.19 30.1676 160.061 9.48547C172.932 30.2288 205.261 44.2412 241.555 44.2412C270.591 44.2412 297.247 35.3687 313.473 20.7444C313.473 40.9982 313.595 61.1908 313.717 81.4446C313.839 104.146 313.961 126.847 313.961 149.488C313.9 233.195 254.975 310.906 160 352.576Z" fill="#2D3440"/>
</svg>
