<svg width="207" height="95" viewBox="0 0 207 95" fill="none" xmlns="http://www.w3.org/2000/svg">
<path d="M143.032 50.3082C143.032 39.673 151.715 30.9895 162.35 30.9895C168.404 30.9895 174.179 33.8973 177.804 38.7568C180.313 42.1027 181.668 46.1258 181.668 50.348C181.668 60.9832 172.985 69.6667 162.35 69.6667C156.295 69.6667 150.52 66.7589 146.895 61.8994C144.346 58.5535 143.032 54.5304 143.032 50.3082ZM162.35 38.6373C155.897 38.6373 150.679 43.8952 150.679 50.3082C150.679 52.8574 151.476 55.2872 152.99 57.3187C155.22 60.3061 158.645 62.0189 162.35 62.0189C168.802 62.0189 174.02 56.8008 174.02 50.348C174.02 47.7987 173.224 45.369 171.71 43.3375C169.479 40.3501 166.054 38.6373 162.35 38.6373Z" fill="#EE424D"/>
<path d="M0 63.3333V37.283C0 36.2872 0.398307 35.2914 1.11526 34.5744C1.83221 33.8574 2.78815 33.4591 3.82374 33.4591H17.6052V3.8239C17.6052 1.71279 19.3179 0 21.4289 0H68.2698C69.2655 0 70.2613 0.398323 70.9783 1.1153C71.6952 1.83229 72.0935 2.82809 72.0935 3.8239V33.4591H120.966C127.777 16.6897 144.068 5.61635 162.31 5.61635C176.53 5.61635 189.554 12.1488 198.078 23.5409C203.893 31.3082 206.96 40.5493 206.96 50.3082C206.96 74.9245 186.925 95 162.27 95C148.09 95 135.066 88.4675 126.542 77.0755C124.232 74.0084 122.36 70.6625 120.926 67.1572H3.78391C2.54916 67.1572 1.4339 66.5597 0.716952 65.6038C0.278815 65.0063 0 64.2096 0 63.3333ZM127.259 62.1384C128.534 65.8826 130.366 69.348 132.716 72.5346C139.766 81.9748 150.6 87.392 162.35 87.392C182.783 87.392 199.392 70.782 199.392 50.348C199.392 42.2621 196.843 34.6143 192.024 28.1614C184.934 18.7212 174.14 13.304 162.35 13.304C146.457 13.304 132.357 23.4612 127.259 38.5178C126.741 40.0713 125.267 41.1069 123.634 41.1069H68.2698C66.1587 41.1069 64.446 39.3941 64.446 37.283V7.6478H25.2128V37.283C25.2128 38.2788 24.8145 39.2746 24.0976 39.9916C23.3806 40.7086 22.4247 41.1069 21.3891 41.1069H7.60766V59.5493H123.595C124.829 59.5493 125.945 60.1467 126.662 61.0629C126.94 61.3815 127.1 61.74 127.259 62.1384Z" fill="#EE424D"/>
</svg>
