<svg width="319" height="88" viewBox="0 0 319 88" fill="none" xmlns="http://www.w3.org/2000/svg">
<path d="M74.5634 65.9994H22.3561V21.9994H74.5634V33.6599H96.9195V0H0V88H96.9195V58.6696H74.5634V65.9994Z" fill="white"/>
<path d="M54.8217 44.9903V52.194H42.126V49.3132H51.893V47.8723H42.126V40.6686H54.8217V43.5505H45.0546V44.9915H54.8217V44.9903Z" fill="#EF424C"/>
<path d="M68.8811 40.666V45.5838L68.0224 46.4287L68.8811 47.2737V50.3889L67.0492 52.1915H56.1865V40.666H68.8811ZM65.9524 44.3929V43.5479H59.114V44.9889H65.3467L65.9524 44.3929ZM65.9524 49.1901V48.4657L65.3467 47.8697H59.114V49.3107H65.8299L65.9524 49.1901Z" fill="#EF424C"/>
<path d="M82.9397 40.666V52.1926H70.2451V40.666H82.9397ZM80.0122 49.3118V43.5479H73.1738V49.3118H80.0122Z" fill="#EF424C"/>
<path d="M97.0002 40.666V45.1016L95.6504 46.4298L97.0002 47.7503V52.1937H94.0716V48.9501L92.9759 47.8719H88.33L87.2343 48.9501V52.1937H84.3057V47.7503L85.6554 46.4298L84.3057 45.1016V40.666H87.2343V43.9096L88.33 44.9878H92.9759L94.0716 43.9096V40.666H97.0002Z" fill="#EF424C"/>
<path d="M134.171 46.4953H125.203V41.1858H134.752V40.0976H124.809C124.602 40.0976 124.433 40.1539 124.302 40.2664C124.171 40.3978 124.096 40.5666 124.096 40.773V54H125.203V47.5835H134.171V46.4953Z" fill="white"/>
<path d="M150.092 46.4953H140.73V41.1858H150.674V40.0976H140.336C140.13 40.0976 139.961 40.1539 139.829 40.2664C139.698 40.3978 139.623 40.5666 139.623 40.773V53.3246C139.623 53.5122 139.698 53.6623 139.848 53.7936C139.98 53.925 140.148 54 140.336 54H150.674V52.9118H140.73V47.5835H150.092V46.4953Z" fill="white"/>
<path d="M167.319 46.4953H157.957V41.1858H167.9V40.0976H157.563C157.356 40.0976 157.187 40.1539 157.056 40.2664C156.925 40.3978 156.85 40.5666 156.85 40.773V53.3246C156.85 53.5122 156.925 53.6623 157.075 53.7936C157.206 53.925 157.375 54 157.563 54H167.9V52.9118H157.957V47.5835H167.319V46.4953Z" fill="white"/>
<path d="M174.789 54H184.733V52.9118H175.183V40.0976H174.076V53.3246C174.076 53.5122 174.151 53.6623 174.301 53.7936C174.433 53.925 174.602 54 174.789 54Z" fill="white"/>
<path d="M195.985 51.8424L195.46 52.818L195.628 52.8931C196.116 53.1182 196.585 53.3058 197.054 53.4559C197.505 53.6248 197.955 53.7561 198.424 53.8499C198.893 53.9625 199.362 54.0376 199.85 54.0938C200.319 54.1501 200.825 54.1689 201.369 54.1689C201.782 54.1689 202.233 54.1501 202.739 54.0938C203.227 54.0376 203.715 53.9625 204.221 53.8312C204.709 53.6998 205.178 53.5497 205.647 53.3434C206.097 53.137 206.51 52.8931 206.867 52.5929C207.223 52.2927 207.505 51.9362 207.711 51.5422C207.917 51.1482 208.03 50.6792 208.03 50.1539C208.03 49.6473 207.955 49.197 207.805 48.803C207.636 48.4278 207.429 48.1088 207.148 47.8274C206.867 47.546 206.529 47.3209 206.135 47.1332C205.741 46.9456 205.309 46.7955 204.84 46.6642C204.278 46.5141 203.696 46.4015 203.077 46.3452C202.458 46.289 201.839 46.2139 201.238 46.1576C200.638 46.1013 200.075 46.0263 199.531 45.9512C198.987 45.8762 198.499 45.7636 198.105 45.5948C197.692 45.4447 197.373 45.2195 197.129 44.9381C196.885 44.6567 196.773 44.2815 196.773 43.8124C196.773 43.2308 196.96 42.743 197.317 42.3678C197.673 42.0113 198.124 41.7111 198.649 41.5047C199.174 41.2983 199.737 41.167 200.338 41.092C200.919 41.0169 201.445 40.9794 201.914 40.9794C202.289 40.9794 202.702 40.9982 203.133 41.0169C203.565 41.0544 204.015 41.1107 204.446 41.1858C204.878 41.2796 205.309 41.3734 205.722 41.5047C206.116 41.636 206.491 41.7861 206.829 41.9738L206.885 41.9925L207.261 40.9606L207.223 40.9419C207.204 40.9419 207.186 40.9419 207.167 40.9231C207.148 40.9231 207.111 40.9231 207.092 40.9231C206.998 40.8856 206.885 40.8481 206.773 40.7918C206.66 40.7355 206.548 40.698 206.454 40.6604C205.703 40.379 204.953 40.1914 204.221 40.0601C203.471 39.9475 202.702 39.8912 201.914 39.8912C201.501 39.8912 201.069 39.91 200.6 39.9663C200.131 40.0225 199.662 40.0976 199.193 40.2102C198.724 40.3415 198.293 40.4916 197.861 40.6792C197.429 40.8856 197.036 41.1295 196.717 41.4109C196.398 41.7111 196.135 42.0488 195.947 42.4428C195.741 42.8368 195.647 43.3058 195.647 43.8124C195.647 44.4128 195.76 44.9006 195.985 45.2946C196.21 45.6886 196.51 45.9888 196.904 46.2327C197.298 46.4766 197.748 46.6642 198.255 46.7955C198.762 46.9269 199.306 47.0394 199.869 47.1145C200.431 47.1708 201.013 47.227 201.595 47.2833C202.176 47.3396 202.758 47.3959 203.321 47.4897C203.715 47.546 204.109 47.621 204.54 47.7148C204.953 47.8274 205.328 47.9775 205.685 48.1839C206.041 48.3903 206.323 48.6342 206.566 48.9531C206.792 49.2721 206.904 49.6661 206.904 50.1539C206.904 50.5479 206.81 50.8856 206.623 51.167C206.435 51.4672 206.191 51.7299 205.891 51.9362C205.572 52.1614 205.234 52.349 204.84 52.4803C204.446 52.6304 204.034 52.743 203.621 52.8368C203.208 52.9306 202.814 52.9869 202.42 53.0244C202.026 53.0619 201.688 53.0807 201.369 53.0807C200.375 53.0807 199.475 52.9869 198.63 52.7993C197.786 52.6117 196.904 52.2927 196.022 51.8612L195.985 51.8424Z" fill="white"/>
<path d="M213.154 54L215.65 48.409H221.635L224.092 54H225.349L219.327 40.2664C219.196 39.9663 218.97 39.8162 218.652 39.8162C218.52 39.8162 218.389 39.8537 218.276 39.9475C218.145 40.0413 218.051 40.1351 217.995 40.2664L211.897 54H213.154ZM216.081 47.4522L218.652 41.636L221.222 47.4522H216.081Z" fill="white"/>
<path d="M240.089 46.4953H231.121V41.1858H240.67V40.0976H230.727C230.52 40.0976 230.351 40.1539 230.22 40.2664C230.089 40.3978 230.014 40.5666 230.014 40.773V54H231.121V47.5835H240.089V46.4953Z" fill="white"/>
<path d="M256.01 46.4953H246.648V41.1858H256.592V40.0976H246.254C246.048 40.0976 245.879 40.1539 245.747 40.2664C245.616 40.3978 245.541 40.5666 245.541 40.773V53.3246C245.541 53.5122 245.616 53.6623 245.766 53.7936C245.897 53.925 246.066 54 246.254 54H256.592V52.9118H246.648V47.5835H256.01V46.4953Z" fill="white"/>
<path d="M278.229 47.1895L272.187 52.7993V53.9437H281.287V52.8368H273.782L279.035 47.9025C279.317 47.6398 279.598 47.3771 279.842 47.0957C280.086 46.8143 280.311 46.5329 280.499 46.2327C280.686 45.9325 280.836 45.6135 280.949 45.2571C281.062 44.9194 281.118 44.5441 281.118 44.1314C281.118 43.4935 281.005 42.9306 280.761 42.4428C280.518 41.955 280.199 41.5422 279.805 41.2233C279.392 40.9043 278.923 40.6792 278.379 40.5103C277.835 40.3415 277.253 40.2664 276.653 40.2664C276.109 40.2664 275.564 40.3415 275.058 40.4728C274.551 40.6229 274.082 40.8481 273.688 41.1295C273.276 41.4109 272.938 41.7674 272.675 42.1989C272.394 42.6304 272.225 43.137 272.15 43.7186V43.7749H273.482V43.7374C273.538 43.3434 273.669 43.0057 273.857 42.7055C274.045 42.424 274.289 42.1801 274.57 41.9738C274.851 41.7674 275.189 41.6173 275.546 41.5047C275.902 41.4109 276.259 41.3546 276.634 41.3546C277.084 41.3546 277.497 41.4109 277.891 41.5422C278.285 41.6736 278.623 41.8612 278.904 42.1051C279.185 42.349 279.392 42.6492 279.561 43.0057C279.73 43.3621 279.805 43.7749 279.805 44.2439C279.805 44.8631 279.654 45.4072 279.354 45.8762C279.054 46.3452 278.679 46.7768 278.229 47.1895Z" fill="white"/>
<path d="M293.027 40.0976H291.958L284.884 48.3152C284.828 48.3715 284.809 48.409 284.791 48.4653C284.772 48.5216 284.772 48.5967 284.772 48.6529C284.772 48.8406 284.828 48.9906 284.959 49.1032C285.072 49.2345 285.222 49.2908 285.41 49.2908H291.92V54H293.027V49.2908H295.072V48.2027H293.027V40.0976ZM291.92 41.636V48.2027H286.348L291.92 41.636Z" fill="white"/>
<path d="M298.876 57.6586L306.381 40.0976H305.161L297.619 57.6586H298.876Z" fill="white"/>
<path d="M318.569 41.0732C318.625 40.9794 318.644 40.8668 318.644 40.7355C318.644 40.304 318.438 40.0976 318.006 40.0976H309.244V41.1858H317.312L311.177 54H312.321L318.569 41.0732Z" fill="white"/>
</svg>
