<svg width="109" height="86" viewBox="0 0 109 86" fill="none" xmlns="http://www.w3.org/2000/svg">
<path d="M26.156 74.9939C26.156 75.384 26.4606 75.6905 26.8483 75.6905H36.2363C36.624 75.6905 36.9286 75.384 36.9286 74.9939C36.9286 74.6039 36.624 74.2974 36.2363 74.2974H26.8483C26.4745 74.2974 26.156 74.6039 26.156 74.9939Z" fill="#EF424C"/>
<path d="M17.6684 74.2974H10.122C9.73431 74.2974 9.42969 74.6039 9.42969 74.9939C9.42969 75.384 9.73431 75.6905 10.122 75.6905H17.6684C18.0561 75.6905 18.3607 75.384 18.3607 74.9939C18.3607 74.6039 18.0561 74.2974 17.6684 74.2974Z" fill="#EF424C"/>
<path d="M101.634 0H30.1439C26.0869 0 22.7776 3.32966 22.7776 7.41163V25.3695H7.36636C3.30932 25.3695 0 28.6992 0 32.7811V78.5744C0 82.6564 3.30932 85.9861 7.36636 85.9861H78.8561C82.927 85.9861 86.2224 82.6564 86.2224 78.5744V60.6305H101.634C105.705 60.6305 109 57.3008 109 53.2189V7.41163C109 3.32966 105.705 0 101.634 0ZM1.38465 32.7811C1.38465 29.4654 4.07088 26.7627 7.36636 26.7627H22.7776H24.1622H78.8561C82.1516 26.7627 84.8378 29.4654 84.8378 32.7811V39.4544H24.1622H22.7776H1.38465V32.7811ZM1.38465 40.8615H22.7776H24.1622H84.8378V50.4047H24.1622H22.7776H1.38465V40.8615ZM84.8378 78.5884C84.8378 81.9041 82.1516 84.6068 78.8561 84.6068H7.36636C4.07088 84.6068 1.38465 81.9041 1.38465 78.5884V51.7978H22.7776H24.1622H84.8378V59.2373V60.6305V78.5884ZM107.615 53.2189C107.615 56.5346 104.929 59.2373 101.634 59.2373H86.2224V32.7811C86.2224 30.0645 84.7409 27.71 82.5669 26.4144H107.615V53.2189ZM107.615 25.0352H24.1622V15.492H107.615V25.0352ZM107.615 14.0988H24.1622V7.41163C24.1622 4.0959 26.8484 1.39316 30.1439 1.39316H101.634C104.929 1.39316 107.615 4.0959 107.615 7.41163V14.0988Z" fill="#EF424C"/>
</svg>
