<svg width="27" height="25" viewBox="0 0 27 25" fill="none" xmlns="http://www.w3.org/2000/svg">
<path d="M21.397 18.706L17.0402 15.7627L15.7946 17.3763C15.4971 17.5307 14.2011 18.1582 13.0262 17.8843C13.006 17.8793 11.0343 17.1771 8.67942 14.6421C6.3144 12.1021 5.55296 9.49745 5.54792 9.48749C5.29074 8.42171 6.14295 7.42067 6.33962 7.20652L8.32139 6.26027L5.15963 0.503055C5.00835 0.2391 4.50913 -0.149362 3.57624 0.05981C2.84505 0.22914 2.27019 0.871597 2.12899 1.05089C1.79617 1.39453 1.64489 1.6535 1.4331 2.0071C1.3625 2.12663 1.28686 2.25114 1.1961 2.40552C0.081667 4.19843 -0.558752 7.56012 0.676702 10.7077C0.732171 10.8521 2.09369 14.2686 4.81673 17.3065C7.53473 20.3395 11.1402 22.4661 11.3066 22.5607C13.2632 23.5917 15.0937 24.005 16.6216 24.005C17.9731 24.005 19.0875 23.6763 19.8288 23.1634C19.9094 23.1086 21.8357 21.8286 22.1786 20.3943C22.4257 19.3485 21.4222 18.7209 21.397 18.706ZM21.4424 20.22C21.2155 21.1712 19.8994 22.2171 19.4052 22.5458C18.0084 23.517 15.0685 23.6913 11.6798 21.9083C11.6445 21.8884 8.02387 19.7519 5.38655 16.8085C2.75428 13.8751 1.3978 10.4686 1.38268 10.4387C0.23799 7.52526 0.817897 4.43748 1.83652 2.79399C1.93737 2.6396 2.01301 2.50513 2.08361 2.3856C2.28027 2.05192 2.40129 1.84773 2.69881 1.53397C2.93582 1.24512 3.34932 0.876577 3.74264 0.786932C4.31751 0.657444 4.48896 0.861636 4.48896 0.861636L7.27251 5.92659L5.94125 6.56406L5.84039 6.63379C5.77988 6.69355 4.41332 8.05317 4.81169 9.67176C4.84195 9.78631 5.62356 12.4657 8.11968 15.1451C10.6158 17.8295 12.6934 18.5566 12.8144 18.5964C14.4684 18.9849 16.1627 18.0287 16.2333 17.9888L16.2989 17.954L17.2015 16.7836L20.9785 19.3335C21.0037 19.3435 21.5634 19.7021 21.4424 20.22Z" fill="#2D3440"/>
<path d="M17.9874 0.0846558C13.57 0.0846558 9.97461 2.9533 9.97461 6.48432C9.97461 7.83896 10.499 9.12886 11.4925 10.2245L10.5797 13.4468L14.2659 12.1469C15.4106 12.625 16.6965 12.879 17.9874 12.879C22.4098 12.879 26.0053 10.0104 26.0053 6.48432C26.0002 2.9533 22.4048 0.0846558 17.9874 0.0846558ZM17.9874 12.132C16.7469 12.132 15.5165 11.883 14.4323 11.4048L14.2962 11.3451L11.7042 12.2565L12.3396 10.0203L12.1934 9.86594C11.2403 8.87486 10.7361 7.70449 10.7361 6.48432C10.7361 3.36666 13.9936 0.831699 17.9925 0.831699C21.9963 0.831699 25.2539 3.36666 25.2539 6.48432C25.2438 9.597 21.9913 12.132 17.9874 12.132Z" fill="#2D3440"/>
<path d="M16.5909 6.28015H14.6797V7.02719H16.5909V6.28015Z" fill="#2D3440"/>
<path d="M20.9121 6.28015H19.001V7.02719H20.9121V6.28015Z" fill="#2D3440"/>
</svg>
