<svg width="59" height="86" viewBox="0 0 59 86" fill="none" xmlns="http://www.w3.org/2000/svg">
<path d="M53.4709 31.9897H48.9285V16.285C48.9285 6.53791 42.4126 0 32.6984 0H26.3016C16.5874 0 10.0715 6.53791 10.0715 16.285V31.9897H5.52912C2.48385 31.9897 0 34.4649 0 37.5204V69.5272C0 79.0695 6.31171 86 14.9882 86H43.9948C52.6883 86 58.983 79.0695 58.983 69.5272V37.5204C59 34.4649 56.5161 31.9897 53.4709 31.9897ZM11.7728 16.285C11.7728 7.42557 17.472 1.70703 26.3016 1.70703H32.6984C41.528 1.70703 47.2272 7.42557 47.2272 16.285V31.9897H11.7728V16.285ZM57.2987 69.5272C57.2987 78.0794 51.7016 84.293 44.0118 84.293H14.9882C7.29844 84.293 1.70127 78.0965 1.70127 69.5272V37.5204C1.70127 35.4037 3.41955 33.6796 5.52912 33.6796H53.4879C55.5634 33.6796 57.3157 35.4379 57.3157 37.5204V69.5272H57.2987Z" fill="#EE424D"/>
<path d="M37.5128 54.3688C37.5128 49.9306 33.9231 46.3287 29.4998 46.3287C25.0765 46.3287 21.4868 49.9306 21.4868 54.3688C21.4868 57.3391 23.103 60.0191 25.6549 61.4188L22.1843 71.6098C22.0993 71.8659 22.1333 72.156 22.3034 72.378C22.4565 72.5999 22.7287 72.7364 23.0009 72.7364H36.0497C36.3219 72.7364 36.5771 72.5999 36.7472 72.378C36.9173 72.156 36.9513 71.8659 36.8663 71.6098L33.4808 61.3506C35.9476 59.9679 37.5128 57.2878 37.5128 54.3688ZM32.0687 60.1727C31.6604 60.3434 31.4733 60.8043 31.6094 61.214L34.8588 71.0465H24.1578L27.4923 61.2652C27.6284 60.8385 27.4242 60.3776 27.0159 60.2069C24.6852 59.2168 23.1711 56.9123 23.1711 54.3688C23.1711 50.8694 26.0122 48.0358 29.4828 48.0358C32.9534 48.0358 35.7945 50.8865 35.7945 54.3688C35.8115 56.8782 34.3484 59.1485 32.0687 60.1727Z" fill="#EE424D"/>
</svg>
