<svg width="97" height="88" viewBox="0 0 97 88" fill="none" xmlns="http://www.w3.org/2000/svg">
<path d="M74.5634 65.9994H22.3561V21.9994H74.5634V33.6599H96.9195V0H0V88H96.9195V58.6696H74.5634V65.9994Z" fill="#2D3440"/>
<path d="M54.8217 44.9903V52.194H42.126V49.3132H51.893V47.8723H42.126V40.6686H54.8217V43.5505H45.0546V44.9915H54.8217V44.9903Z" fill="#EF424C"/>
<path d="M68.8806 40.666V45.5838L68.0219 46.4288L68.8806 47.2737V50.3889L67.0488 52.1915H56.186V40.666H68.8806ZM65.9519 44.3929V43.548H59.1135V44.9889H65.3462L65.9519 44.3929ZM65.9519 49.1901V48.4658L65.3462 47.8697H59.1135V49.3107H65.8294L65.9519 49.1901Z" fill="#EF424C"/>
<path d="M82.9397 40.666V52.1926H70.2451V40.666H82.9397ZM80.0122 49.3118V43.548H73.1738V49.3118H80.0122Z" fill="#EF424C"/>
<path d="M97 40.666V45.1016L95.6502 46.4299L97 47.7503V52.1937H94.0713V48.9502L92.9756 47.8719H88.3297L87.2341 48.9502V52.1937H84.3054V47.7503L85.6552 46.4299L84.3054 45.1016V40.666H87.2341V43.9096L88.3297 44.9878H92.9756L94.0713 43.9096V40.666H97Z" fill="#EF424C"/>
</svg>
