<svg width="97" height="88" viewBox="0 0 97 88" fill="none" xmlns="http://www.w3.org/2000/svg">
<path d="M74.5634 65.9994H22.3561V21.9994H74.5634V33.6599H96.9195V0H0V88H96.9195V58.6696H74.5634V65.9994Z" fill="white"/>
<path d="M54.8218 44.9903V52.194H42.1261V49.3132H51.8931V47.8723H42.1261V40.6686H54.8218V43.5505H45.0547V44.9915H54.8218V44.9903Z" fill="#EF424C"/>
<path d="M68.8808 40.666V45.5838L68.0222 46.4288L68.8808 47.2737V50.3889L67.049 52.1915H56.1862V40.666H68.8808ZM65.9522 44.3929V43.548H59.1138V44.9889H65.3465L65.9522 44.3929ZM65.9522 49.1901V48.4658L65.3465 47.8697H59.1138V49.3107H65.8297L65.9522 49.1901Z" fill="#EF424C"/>
<path d="M82.9398 40.666V52.1926H70.2453V40.666H82.9398ZM80.0123 49.3118V43.548H73.1739V49.3118H80.0123Z" fill="#EF424C"/>
<path d="M97 40.666V45.1016L95.6502 46.4299L97 47.7503V52.1937H94.0714V48.9502L92.9757 47.8719H88.3298L87.2341 48.9502V52.1937H84.3055V47.7503L85.6552 46.4299L84.3055 45.1016V40.666H87.2341V43.9096L88.3298 44.9878H92.9757L94.0714 43.9096V40.666H97Z" fill="#EF424C"/>
</svg>
